<svg id="Layer_1" data-name="Layer 1" xmlns="http://www.w3.org/2000/svg" xmlns:xlink="http://www.w3.org/1999/xlink" viewBox="0 0 278.19 60.39"><defs><style>.cls-1{fill:url(#linear-gradient);}.cls-2{fill:#fff;}.cls-3{mask:url(#mask);}.cls-4{opacity:0.5;}</style><linearGradient id="linear-gradient" x1="59.63" y1="44.05" x2="86.6" y2="55.14" gradientTransform="translate(27.61 -28.21) rotate(23.02)" gradientUnits="userSpaceOnUse"><stop offset="0" stop-color="#fff"/><stop offset="1" stop-color="#3f3e3e"/></linearGradient><mask id="mask" x="-1.94" y="-22.93" width="86.31" height="97.02" maskUnits="userSpaceOnUse"><g transform="translate(-41.86 -28.11)"><rect class="cls-1" x="53.18" y="13.68" width="59.78" height="80.01" transform="translate(-14.38 36.76) rotate(-23.02)"/></g></mask></defs><title>webdock-logo-hvid-payoff</title><path class="cls-2" d="M115,28.11h-1.7a1.28,1.28,0,0,0-1.18.79L89.09,84.33a1.28,1.28,0,0,0,1.18,1.77h9.63a10.8,10.8,0,0,0,10-6.65L125,43.06A10.8,10.8,0,0,0,115,28.11Z" transform="translate(-41.86 -28.11)"/><path class="cls-2" d="M106.83,28.11h-16a1.27,1.27,0,0,0-1.18.78L66.6,84.33a1.27,1.27,0,0,0,1.18,1.76h16a1.27,1.27,0,0,0,1.18-.78L108,29.87A1.27,1.27,0,0,0,106.83,28.11Z" transform="translate(-41.86 -28.11)"/><g class="cls-3"><path class="cls-2" d="M84.33,32.59l-1.55-3.71a1.25,1.25,0,0,0-1.15-.77h-16a1.25,1.25,0,0,0-1.15,1.73l9.56,23a1.25,1.25,0,0,0,2.31,0l8-19.27A1.25,1.25,0,0,0,84.33,32.59Z" transform="translate(-41.86 -28.11)"/><path class="cls-2" d="M60.3,28.88a1.25,1.25,0,0,0-1.15-.77h-16A1.25,1.25,0,0,0,42,29.84l20.8,50a1.25,1.25,0,0,0,2.31,0l8-19.27a1.25,1.25,0,0,0,0-1Z" transform="translate(-41.86 -28.11)"/></g><path class="cls-2" d="M159.89,34.68h3.36L167,44.43l3.75-9.75h3.36l-4.86,12.2L174,58.44l9.47-23.92h3.87l-11.72,28h-3.08L167,49.32l-5.61,13.22h-3.08l-11.68-28h3.83L160,58.44l4.78-11.57Z" transform="translate(-41.86 -28.11)"/><path class="cls-2" d="M195.91,62.94a10.5,10.5,0,0,1-4.26-.85,10.09,10.09,0,0,1-3.32-2.31,10.52,10.52,0,0,1-2.15-3.41,11.15,11.15,0,0,1-.77-4.13,11,11,0,0,1,.77-4.11,10.42,10.42,0,0,1,2.17-3.4,10.31,10.31,0,0,1,3.34-2.31,10.49,10.49,0,0,1,4.26-.85,10,10,0,0,1,9.57,6.53,11.05,11.05,0,0,1,.73,4q0,.43,0,.79a4.22,4.22,0,0,1-.06.55H189.08a8,8,0,0,0,.71,2.8,7.2,7.2,0,0,0,1.54,2.17,7.1,7.1,0,0,0,2.15,1.42,6.42,6.42,0,0,0,2.55.51,6.78,6.78,0,0,0,1.86-.26,8,8,0,0,0,1.7-.69,5.89,5.89,0,0,0,1.4-1.07,4.37,4.37,0,0,0,.93-1.42l3,.83a7.57,7.57,0,0,1-1.4,2.09,9.31,9.31,0,0,1-2.05,1.64,10.58,10.58,0,0,1-2.59,1.09A11,11,0,0,1,195.91,62.94ZM203,50.86a7.43,7.43,0,0,0-.73-2.7A7.26,7.26,0,0,0,200.7,46a7.06,7.06,0,0,0-7.36-1.36,6.69,6.69,0,0,0-2.15,1.38,7,7,0,0,0-1.5,2.11,7.77,7.77,0,0,0-.69,2.68Z" transform="translate(-41.86 -28.11)"/><path class="cls-2" d="M220.12,62.94a8.35,8.35,0,0,1-4.38-1.18,9,9,0,0,1-3.12-3.08v3.87h-3.08V33.73H213V46a10.73,10.73,0,0,1,3.2-3.24,8.57,8.57,0,0,1,8.25-.32,9.45,9.45,0,0,1,2.9,2.39,10.8,10.8,0,0,1,1.86,3.43,12.59,12.59,0,0,1,.65,4,11.26,11.26,0,0,1-.75,4.11,10.8,10.8,0,0,1-2.05,3.38,9.74,9.74,0,0,1-3.1,2.29A8.91,8.91,0,0,1,220.12,62.94Zm-.87-3a6.42,6.42,0,0,0,2.84-.63,7.15,7.15,0,0,0,2.25-1.7,7.72,7.72,0,0,0,1.46-2.43,8.07,8.07,0,0,0,.51-2.86,8.68,8.68,0,0,0-.49-2.9A7.94,7.94,0,0,0,224.45,47a7,7,0,0,0-2.13-1.72,5.82,5.82,0,0,0-2.74-.65,5.58,5.58,0,0,0-2.09.39,7.68,7.68,0,0,0-1.84,1,7.8,7.8,0,0,0-1.5,1.52A11,11,0,0,0,213,49.4v6a4.25,4.25,0,0,0,.85,1.82,7,7,0,0,0,1.54,1.44,8,8,0,0,0,1.89,1A5.85,5.85,0,0,0,219.26,59.94Z" transform="translate(-41.86 -28.11)"/><path class="cls-2" d="M242.12,62.94a9,9,0,0,1-3.95-.87,9.78,9.78,0,0,1-3.12-2.33,10.73,10.73,0,0,1-2-3.4,11.41,11.41,0,0,1-.73-4.07,12.29,12.29,0,0,1,.69-4.13,10.73,10.73,0,0,1,1.93-3.41,9.21,9.21,0,0,1,3-2.31,8.39,8.39,0,0,1,3.77-.85,7.82,7.82,0,0,1,4.44,1.3,10.28,10.28,0,0,1,3.1,3.16V33.73h3.47V58.28q0,1.22,1.11,1.26v3l-.89.12a5.71,5.71,0,0,1-.65,0,2.6,2.6,0,0,1-1.8-.69,2.09,2.09,0,0,1-.77-1.6V58.68a8.87,8.87,0,0,1-7.54,4.26Zm.83-3a5.85,5.85,0,0,0,2-.36,7.61,7.61,0,0,0,1.89-1,7.11,7.11,0,0,0,1.54-1.48,4.43,4.43,0,0,0,.85-1.8V49.4a6.56,6.56,0,0,0-1.07-1.88,8.44,8.44,0,0,0-1.6-1.54,7.77,7.77,0,0,0-1.89-1,5.68,5.68,0,0,0-2-.38,5.9,5.9,0,0,0-2.78.65A6.82,6.82,0,0,0,237.72,47a7.87,7.87,0,0,0-1.36,2.49,8.87,8.87,0,0,0-.47,2.86,7.94,7.94,0,0,0,.55,2.94,7.71,7.71,0,0,0,1.5,2.43,7.24,7.24,0,0,0,2.23,1.64A6.38,6.38,0,0,0,243,59.94Z" transform="translate(-41.86 -28.11)"/><path class="cls-2" d="M266.65,62.94a10.11,10.11,0,0,1-7.52-3.2,10.47,10.47,0,0,1-2.11-3.4,11.15,11.15,0,0,1-.75-4.07,11,11,0,0,1,.77-4.11,10.77,10.77,0,0,1,2.13-3.4,10.17,10.17,0,0,1,3.28-2.33,10.07,10.07,0,0,1,4.2-.87,10.19,10.19,0,0,1,7.52,3.2,10.77,10.77,0,0,1,2.13,3.4,11,11,0,0,1,.77,4.11,11.15,11.15,0,0,1-.75,4.07,10.25,10.25,0,0,1-5.43,5.72A10.17,10.17,0,0,1,266.65,62.94Zm-6.83-10.62a8.27,8.27,0,0,0,.53,3,7.66,7.66,0,0,0,1.46,2.41A6.9,6.9,0,0,0,264,59.35a6.3,6.3,0,0,0,5.33,0,7,7,0,0,0,2.19-1.64A7.66,7.66,0,0,0,273,55.26a8.43,8.43,0,0,0,.53-3,8.31,8.31,0,0,0-.53-3,7.67,7.67,0,0,0-1.48-2.45,7,7,0,0,0-2.19-1.64,6.11,6.11,0,0,0-2.66-.59,6,6,0,0,0-2.67.61,7,7,0,0,0-2.17,1.66,7.86,7.86,0,0,0-1.46,2.45A8.43,8.43,0,0,0,259.83,52.32Z" transform="translate(-41.86 -28.11)"/><path class="cls-2" d="M279.36,52.2a11.26,11.26,0,0,1,.75-4.11,10.1,10.1,0,0,1,2.13-3.38,10.28,10.28,0,0,1,3.3-2.29,10.45,10.45,0,0,1,4.28-.85,10,10,0,0,1,5.31,1.36,8.85,8.85,0,0,1,3.38,3.65l-3.4,1.07a5.65,5.65,0,0,0-2.21-2.27,6.28,6.28,0,0,0-3.16-.81,6.46,6.46,0,0,0-4.86,2.17,7.88,7.88,0,0,0-1.44,2.41,8.78,8.78,0,0,0,0,6.08,8.1,8.1,0,0,0,1.48,2.47,6.76,6.76,0,0,0,2.17,1.64,6.12,6.12,0,0,0,2.66.59,6.43,6.43,0,0,0,1.8-.26A6.9,6.9,0,0,0,293.2,59a6.14,6.14,0,0,0,1.28-1,3.43,3.43,0,0,0,.79-1.24l3.4,1a7.32,7.32,0,0,1-1.32,2.09,8.28,8.28,0,0,1-2,1.62,10.93,10.93,0,0,1-5.49,1.46,10.29,10.29,0,0,1-7.58-3.2,10.52,10.52,0,0,1-2.15-3.41A11.15,11.15,0,0,1,279.36,52.2Z" transform="translate(-41.86 -28.11)"/><path class="cls-2" d="M316.29,62.55l-7.11-10.07-3.95,3.71v6.36h-3.47V33.73h3.47V52.68L315.82,42h3.83l-8.21,8.53,8.61,12Z" transform="translate(-41.86 -28.11)"/><g class="cls-4"><path class="cls-2" d="M164.65,71.92V84.51h-1.6V78.78h-6.93v5.73h-1.6V71.92h1.6v5.44h6.93V71.92Z" transform="translate(-41.86 -28.11)"/><path class="cls-2" d="M171.86,84.69a4.54,4.54,0,0,1-3.38-1.44,4.72,4.72,0,0,1-.95-1.52,5,5,0,0,1-.34-1.83,4.94,4.94,0,0,1,.35-1.84,4.81,4.81,0,0,1,1-1.52,4.57,4.57,0,0,1,1.47-1,4.51,4.51,0,0,1,1.89-.39,4.57,4.57,0,0,1,3.38,1.44,4.83,4.83,0,0,1,1,1.52,4.94,4.94,0,0,1,.35,1.84,5,5,0,0,1-.34,1.83,4.6,4.6,0,0,1-2.44,2.57A4.56,4.56,0,0,1,171.86,84.69Zm-3.07-4.77a3.71,3.71,0,0,0,.24,1.35,3.43,3.43,0,0,0,.66,1.08,3.07,3.07,0,0,0,1,.73,2.82,2.82,0,0,0,2.39,0,3.15,3.15,0,0,0,1-.73,3.45,3.45,0,0,0,.66-1.1,3.78,3.78,0,0,0,.24-1.36,3.73,3.73,0,0,0-.24-1.34,3.45,3.45,0,0,0-.66-1.1,3.16,3.16,0,0,0-1-.74,2.75,2.75,0,0,0-1.2-.27,2.67,2.67,0,0,0-1.2.27,3.14,3.14,0,0,0-1,.74,3.52,3.52,0,0,0-.66,1.1A3.78,3.78,0,0,0,168.79,79.92Z" transform="translate(-41.86 -28.11)"/><path class="cls-2" d="M182,84.69a7.17,7.17,0,0,1-2.2-.35,5.4,5.4,0,0,1-1.86-1l.67-1a6.55,6.55,0,0,0,1.63.93,4.79,4.79,0,0,0,1.72.31,2.84,2.84,0,0,0,1.6-.4,1.28,1.28,0,0,0,.59-1.13,1,1,0,0,0-.16-.58,1.34,1.34,0,0,0-.48-.42,4,4,0,0,0-.81-.32l-1.15-.3q-.83-.21-1.44-.41a3.87,3.87,0,0,1-1-.46,1.6,1.6,0,0,1-.57-.64,2.13,2.13,0,0,1-.18-.92,2.68,2.68,0,0,1,.27-1.23,2.59,2.59,0,0,1,.75-.9,3.39,3.39,0,0,1,1.13-.55,5,5,0,0,1,1.39-.19,5.54,5.54,0,0,1,1.95.34,4.8,4.8,0,0,1,1.52.89l-.71.94a4,4,0,0,0-1.31-.77,4.44,4.44,0,0,0-1.49-.26,2.72,2.72,0,0,0-1.44.36,1.26,1.26,0,0,0-.59,1.16,1.1,1.1,0,0,0,.12.53,1,1,0,0,0,.38.37,3,3,0,0,0,.68.28l1,.27q.92.21,1.6.43a4.67,4.67,0,0,1,1.13.52,2,2,0,0,1,.67.71,2.05,2.05,0,0,1,.22,1,2.46,2.46,0,0,1-1,2.06A4.28,4.28,0,0,1,182,84.69Z" transform="translate(-41.86 -28.11)"/><path class="cls-2" d="M192.71,84l-.37.17-.52.2a4.6,4.6,0,0,1-.64.16,4.07,4.07,0,0,1-.72.06,2.37,2.37,0,0,1-1.47-.47,1.71,1.71,0,0,1-.62-1.46V76.48h-1.26V75.26h1.26V72.17h1.56v3.08H192v1.22h-2.07v5.74a1,1,0,0,0,.34.74,1.14,1.14,0,0,0,.71.23,2.27,2.27,0,0,0,.84-.15,3.64,3.64,0,0,0,.52-.24Z" transform="translate(-41.86 -28.11)"/><path class="cls-2" d="M194.52,73.52V71.57h1.56v1.95Zm0,11V75.26h1.56v9.25Z" transform="translate(-41.86 -28.11)"/><path class="cls-2" d="M207,84.51h-1.56V79.33a4,4,0,0,0-.45-2.16,1.54,1.54,0,0,0-1.37-.67,2.62,2.62,0,0,0-1,.19,3.79,3.79,0,0,0-.9.5A3.53,3.53,0,0,0,201,78a3.23,3.23,0,0,0-.48,1v5.58h-1.56V75.26h1.42v2a4.07,4.07,0,0,1,1.59-1.56,4.52,4.52,0,0,1,2.26-.58,2.73,2.73,0,0,1,1.33.29,2.26,2.26,0,0,1,.85.82,3.63,3.63,0,0,1,.45,1.23A8.45,8.45,0,0,1,207,79Z" transform="translate(-41.86 -28.11)"/><path class="cls-2" d="M213.45,84.62a3.84,3.84,0,0,1-1.73-.39,4.27,4.27,0,0,1-1.36-1,4.77,4.77,0,0,1-.88-1.51,5.11,5.11,0,0,1-.31-1.77,5.49,5.49,0,0,1,.31-1.85,4.71,4.71,0,0,1,.88-1.53,4.17,4.17,0,0,1,1.36-1,4,4,0,0,1,1.75-.38,3.56,3.56,0,0,1,2,.57,5.2,5.2,0,0,1,1.44,1.44V75.26h1.38V84.4a3.9,3.9,0,0,1-.37,1.75,3.71,3.71,0,0,1-1,1.27,4.44,4.44,0,0,1-1.5.78,6.17,6.17,0,0,1-1.83.27,5.3,5.3,0,0,1-2.56-.54,4.72,4.72,0,0,1-1.64-1.5l.9-.8a3.45,3.45,0,0,0,1.42,1.22,4.37,4.37,0,0,0,1.88.41,4.09,4.09,0,0,0,1.21-.18,2.85,2.85,0,0,0,1-.53,2.63,2.63,0,0,0,.68-.89,2.86,2.86,0,0,0,.26-1.26V82.77a4,4,0,0,1-1.42,1.36,3.76,3.76,0,0,1-.9.36A3.87,3.87,0,0,1,213.45,84.62Zm.48-1.28a2.65,2.65,0,0,0,1-.18,3.51,3.51,0,0,0,.85-.47,3.06,3.06,0,0,0,.66-.66,2.12,2.12,0,0,0,.35-.76V78.61a3.54,3.54,0,0,0-.5-.87,3.83,3.83,0,0,0-.7-.68,3.12,3.12,0,0,0-.84-.45,2.73,2.73,0,0,0-.91-.16,2.63,2.63,0,0,0-1.27.3,3,3,0,0,0-.95.8,3.78,3.78,0,0,0-.6,1.13,4,4,0,0,0-.21,1.27,3.5,3.5,0,0,0,.25,1.31,3.47,3.47,0,0,0,.67,1.08,3.24,3.24,0,0,0,1,.74A2.85,2.85,0,0,0,213.93,83.34Z" transform="translate(-41.86 -28.11)"/><path class="cls-2" d="M240.15,84.51h-1.56V79.33a3.87,3.87,0,0,0-.47-2.14,1.57,1.57,0,0,0-1.39-.69,2.48,2.48,0,0,0-1.71.68,3.76,3.76,0,0,0-1.07,1.76v5.57h-1.56V79.33a3.92,3.92,0,0,0-.46-2.16,1.56,1.56,0,0,0-1.38-.67,2.52,2.52,0,0,0-1.7.66,3.6,3.6,0,0,0-1.08,1.76v5.58H226.2V75.26h1.42v2a4.2,4.2,0,0,1,1.47-1.59,3.8,3.8,0,0,1,2-.56,2.63,2.63,0,0,1,1.85.63,2.72,2.72,0,0,1,.84,1.62,3.86,3.86,0,0,1,3.53-2.25,2.78,2.78,0,0,1,1.34.29,2.24,2.24,0,0,1,.86.82,3.75,3.75,0,0,1,.46,1.23,7.87,7.87,0,0,1,.14,1.54Z" transform="translate(-41.86 -28.11)"/><path class="cls-2" d="M245.34,84.69a3.34,3.34,0,0,1-1.22-.22,3,3,0,0,1-1-.61,2.87,2.87,0,0,1-.66-.91,2.71,2.71,0,0,1-.24-1.14,2.39,2.39,0,0,1,.28-1.16,2.64,2.64,0,0,1,.81-.9,4.15,4.15,0,0,1,1.24-.58,5.5,5.5,0,0,1,1.57-.21,7.73,7.73,0,0,1,1.36.12,6.36,6.36,0,0,1,1.22.34v-.74a2.23,2.23,0,0,0-2.45-2.43,5.17,5.17,0,0,0-2.94,1.08l-.51-1a6.4,6.4,0,0,1,3.6-1.2,4,4,0,0,1,2.85,1,3.62,3.62,0,0,1,1,2.75V82.6q0,.55.5.57v1.35l-.41.05-.34,0a1,1,0,0,1-.74-.27,1.13,1.13,0,0,1-.33-.67l0-.66a4,4,0,0,1-1.57,1.27A4.82,4.82,0,0,1,245.34,84.69Zm.41-1.17a3.86,3.86,0,0,0,1.55-.31,2.56,2.56,0,0,0,1.09-.82,1,1,0,0,0,.34-.69V80.33a6.42,6.42,0,0,0-2.36-.44,3.34,3.34,0,0,0-1.91.5,1.5,1.5,0,0,0-.73,1.29A1.74,1.74,0,0,0,244.3,83a2,2,0,0,0,.65.39A2.22,2.22,0,0,0,245.75,83.52Z" transform="translate(-41.86 -28.11)"/><path class="cls-2" d="M256.93,84.69a4.06,4.06,0,0,1-1.77-.39,4.41,4.41,0,0,1-1.4-1,4.84,4.84,0,0,1-.91-1.52,5.1,5.1,0,0,1-.33-1.83,5.49,5.49,0,0,1,.31-1.85,4.79,4.79,0,0,1,.87-1.53,4.13,4.13,0,0,1,1.33-1,3.77,3.77,0,0,1,1.69-.38,3.51,3.51,0,0,1,2,.58,4.61,4.61,0,0,1,1.39,1.42V71.57h1.56v11q0,.55.5.57v1.35l-.4.05-.29,0a1.17,1.17,0,0,1-.81-.31.94.94,0,0,1-.34-.72v-.78a4,4,0,0,1-3.39,1.91Zm.37-1.35a2.63,2.63,0,0,0,.88-.16,3.45,3.45,0,0,0,.85-.44,3.24,3.24,0,0,0,.69-.67,2,2,0,0,0,.38-.81V78.61a3,3,0,0,0-.48-.84,3.81,3.81,0,0,0-.72-.69,3.52,3.52,0,0,0-.85-.46,2.57,2.57,0,0,0-.9-.17,2.65,2.65,0,0,0-1.25.29,3.06,3.06,0,0,0-1,.78,3.51,3.51,0,0,0-.61,1.12,4,4,0,0,0-.21,1.28,3.57,3.57,0,0,0,.25,1.32,3.45,3.45,0,0,0,.67,1.09,3.26,3.26,0,0,0,1,.74A2.86,2.86,0,0,0,257.3,83.34Z" transform="translate(-41.86 -28.11)"/><path class="cls-2" d="M268.69,84.69a4.71,4.71,0,0,1-1.91-.38,4.54,4.54,0,0,1-1.49-1,4.73,4.73,0,0,1-1-1.53,5,5,0,0,1-.35-1.85,4.94,4.94,0,0,1,.35-1.84,4.61,4.61,0,0,1,2.47-2.56,4.72,4.72,0,0,1,1.91-.38,4.53,4.53,0,0,1,3.37,1.43A4.62,4.62,0,0,1,273,78a5,5,0,0,1,.33,1.78c0,.13,0,.25,0,.35a1.75,1.75,0,0,1,0,.25h-7.67a3.6,3.6,0,0,0,.32,1.26,3.23,3.23,0,0,0,.69,1,3.19,3.19,0,0,0,1,.64,2.87,2.87,0,0,0,1.14.23,3,3,0,0,0,.83-.12,3.56,3.56,0,0,0,.76-.31,2.64,2.64,0,0,0,.63-.48,2,2,0,0,0,.42-.64l1.35.37a3.41,3.41,0,0,1-.63.94,4.19,4.19,0,0,1-.92.74,4.75,4.75,0,0,1-1.16.49A5,5,0,0,1,268.69,84.69Zm3.17-5.42a3.36,3.36,0,0,0-.33-1.21,3.27,3.27,0,0,0-.69-.95,3.17,3.17,0,0,0-3.31-.61,3,3,0,0,0-1,.62,3.14,3.14,0,0,0-.67.95,3.46,3.46,0,0,0-.31,1.2Z" transform="translate(-41.86 -28.11)"/><path class="cls-2" d="M284.53,84.69a4.71,4.71,0,0,1-1.91-.38,4.54,4.54,0,0,1-1.49-1,4.73,4.73,0,0,1-1-1.53,5,5,0,0,1-.35-1.85,4.94,4.94,0,0,1,.35-1.84,4.61,4.61,0,0,1,2.47-2.56,4.72,4.72,0,0,1,1.91-.38,4.53,4.53,0,0,1,3.37,1.43,4.62,4.62,0,0,1,.93,1.51,5,5,0,0,1,.33,1.78c0,.13,0,.25,0,.35a1.75,1.75,0,0,1,0,.25h-7.67a3.6,3.6,0,0,0,.32,1.26,3.23,3.23,0,0,0,.69,1,3.19,3.19,0,0,0,1,.64,2.87,2.87,0,0,0,1.14.23,3,3,0,0,0,.83-.12,3.56,3.56,0,0,0,.76-.31,2.64,2.64,0,0,0,.63-.48,2,2,0,0,0,.42-.64l1.35.37a3.41,3.41,0,0,1-.63.94A4.19,4.19,0,0,1,287,84a4.75,4.75,0,0,1-1.16.49A5,5,0,0,1,284.53,84.69Zm3.17-5.42a3.36,3.36,0,0,0-.33-1.21,3.27,3.27,0,0,0-.69-.95,3.17,3.17,0,0,0-3.31-.61,3,3,0,0,0-1,.62,3.14,3.14,0,0,0-.67.95,3.46,3.46,0,0,0-.31,1.2Z" transform="translate(-41.86 -28.11)"/><path class="cls-2" d="M293.72,84.69a3.34,3.34,0,0,1-1.22-.22,3,3,0,0,1-1-.61,2.87,2.87,0,0,1-.66-.91,2.71,2.71,0,0,1-.24-1.14,2.39,2.39,0,0,1,.28-1.16,2.64,2.64,0,0,1,.81-.9,4.15,4.15,0,0,1,1.24-.58,5.5,5.5,0,0,1,1.57-.21,7.73,7.73,0,0,1,1.36.12,6.36,6.36,0,0,1,1.22.34v-.74a2.23,2.23,0,0,0-2.45-2.43,5.17,5.17,0,0,0-2.94,1.08l-.51-1a6.4,6.4,0,0,1,3.6-1.2,4,4,0,0,1,2.85,1,3.62,3.62,0,0,1,1,2.75V82.6q0,.55.5.57v1.35l-.41.05-.34,0a1,1,0,0,1-.74-.27,1.13,1.13,0,0,1-.33-.67l0-.66a4,4,0,0,1-1.57,1.27A4.82,4.82,0,0,1,293.72,84.69Zm.41-1.17a3.86,3.86,0,0,0,1.55-.31,2.56,2.56,0,0,0,1.09-.82,1,1,0,0,0,.34-.69V80.33a6.42,6.42,0,0,0-2.36-.44,3.34,3.34,0,0,0-1.91.5,1.5,1.5,0,0,0-.73,1.29,1.74,1.74,0,0,0,.58,1.31,2,2,0,0,0,.65.39A2.22,2.22,0,0,0,294.13,83.52Z" transform="translate(-41.86 -28.11)"/><path class="cls-2" d="M304.89,84.69a7.17,7.17,0,0,1-2.2-.35,5.4,5.4,0,0,1-1.86-1l.67-1a6.55,6.55,0,0,0,1.63.93,4.79,4.79,0,0,0,1.72.31,2.84,2.84,0,0,0,1.6-.4,1.28,1.28,0,0,0,.59-1.13,1,1,0,0,0-.16-.58,1.34,1.34,0,0,0-.48-.42,4,4,0,0,0-.81-.32l-1.15-.3q-.83-.21-1.44-.41a3.87,3.87,0,0,1-1-.46,1.6,1.6,0,0,1-.57-.64,2.13,2.13,0,0,1-.18-.92,2.68,2.68,0,0,1,.27-1.23,2.59,2.59,0,0,1,.75-.9,3.39,3.39,0,0,1,1.13-.55,5,5,0,0,1,1.39-.19,5.54,5.54,0,0,1,1.95.34,4.8,4.8,0,0,1,1.52.89l-.71.94a4,4,0,0,0-1.31-.77,4.44,4.44,0,0,0-1.49-.26,2.72,2.72,0,0,0-1.44.36,1.26,1.26,0,0,0-.59,1.16,1.1,1.1,0,0,0,.12.53,1,1,0,0,0,.38.37,3,3,0,0,0,.68.28l1,.27q.92.21,1.6.43a4.67,4.67,0,0,1,1.13.52,2,2,0,0,1,.67.71,2.05,2.05,0,0,1,.22,1,2.46,2.46,0,0,1-1,2.06A4.28,4.28,0,0,1,304.89,84.69Z" transform="translate(-41.86 -28.11)"/><path class="cls-2" d="M311.22,87l.46.05.35,0a.75.75,0,0,0,.38-.1,1,1,0,0,0,.34-.38,6.66,6.66,0,0,0,.38-.79q.21-.5.53-1.32l-3.92-9.25h1.61l3.16,7.85,2.87-7.85h1.49l-4.5,11.68a2.69,2.69,0,0,1-.82,1.09,2.44,2.44,0,0,1-1.59.47l-.33,0-.42-.07Z" transform="translate(-41.86 -28.11)"/></g></svg>